<svg id="Layer_1" data-name="Layer 1" xmlns="http://www.w3.org/2000/svg" viewBox="0 0 101.06 46.55"><defs><style>.cls-1{fill:#f46141;}.cls-2{fill:#151717;}.cls-3{fill:#92482f;}.cls-4{fill:#fff;}.cls-5{fill:#859956;}</style></defs><title>toto_logo</title><circle class="cls-1" cx="120.37" cy="170.19" r="17.6" transform="translate(-167.64 118.22) rotate(-80.73)"/><path class="cls-2" d="M120.37,189.91a19.72,19.72,0,1,1,19.71-19.72A19.74,19.74,0,0,1,120.37,189.91Zm0-35.21a15.49,15.49,0,1,0,15.49,15.49A15.51,15.51,0,0,0,120.37,154.7Z" transform="translate(-100.66 -143.36)"/><path class="cls-3" d="M120.37,185.78A15.59,15.59,0,1,1,136,170.19,15.6,15.6,0,0,1,120.37,185.78Zm0-29.37a13.78,13.78,0,1,0,13.78,13.78A13.79,13.79,0,0,0,120.37,156.41Z" transform="translate(-100.66 -143.36)"/><path class="cls-4" d="M111,161.71a1.19,1.19,0,0,1-.87-.37,1.21,1.21,0,0,1,0-1.71,14.68,14.68,0,0,1,17.61-2.08,1.21,1.21,0,1,1-1.22,2.08,12.25,12.25,0,0,0-14.71,1.74A1.2,1.2,0,0,1,111,161.71Z" transform="translate(-100.66 -143.36)"/><path class="cls-2" d="M120.37,182.32a12.13,12.13,0,0,1-12.12-12.13,1.2,1.2,0,0,1,1.2-1.2h2.32a1.21,1.21,0,0,1,0,2.41h-1a9.71,9.71,0,0,0,19.35-1.21,1.21,1.21,0,0,1,2.42,0A12.14,12.14,0,0,1,120.37,182.32Z" transform="translate(-100.66 -143.36)"/><path class="cls-5" d="M137.54,145.88a.74.74,0,0,0-.73-.73c-.43,0-.6.38-.73.73a1.64,1.64,0,0,1-2.33.48c-1.24-.58-2.34-1.41-3.57-2-2.84-1.37-6.57-1.6-8.8,1a5.38,5.38,0,0,0-1.1,1.95h0a.73.73,0,0,0,1.33.58,5.15,5.15,0,0,1,.47-.73,2,2,0,0,1,.81-.54,3.21,3.21,0,0,1,1.89,0,10.71,10.71,0,0,1,3.66,2.17,7.27,7.27,0,0,0,4.77,1.82,4.29,4.29,0,0,0,3.93-2.17A5,5,0,0,0,137.54,145.88Z" transform="translate(-100.66 -143.36)"/><path class="cls-2" d="M157.19,166.6H144.34a.68.68,0,0,0-.67.68V170a.68.68,0,0,0,.67.68h1.24a.69.69,0,0,0,.68-.68v-.17a.67.67,0,0,1,.67-.67h2.25a.67.67,0,0,1,.67.67v9.61a.68.68,0,0,1-.67.68H149a.68.68,0,0,0-.68.67v1.24a.69.69,0,0,0,.68.68h4.39a.68.68,0,0,0,.68-.68v-1.24a.67.67,0,0,0-.68-.67h-.22a.68.68,0,0,1-.68-.68v-9.61a.67.67,0,0,1,.68-.67h2.24a.68.68,0,0,1,.68.67V170a.68.68,0,0,0,.67.68H158a.69.69,0,0,0,.68-.68v-2.76a.69.69,0,0,0-.68-.68Z" transform="translate(-100.66 -143.36)"/><path class="cls-5" d="M163.28,181.85a6.41,6.41,0,1,1,6.41-6.41A6.42,6.42,0,0,1,163.28,181.85Zm0-10.1a3.69,3.69,0,1,0,3.69,3.69A3.7,3.7,0,0,0,163.28,171.75Z" transform="translate(-100.66 -143.36)"/><path class="cls-1" d="M194.16,183.05a7.56,7.56,0,1,1,7.56-7.55A7.56,7.56,0,0,1,194.16,183.05Zm0-12.61a5.06,5.06,0,1,0,5.05,5.06A5.06,5.06,0,0,0,194.16,170.44Z" transform="translate(-100.66 -143.36)"/><path class="cls-2" d="M188,166.6H175.14a.68.68,0,0,0-.68.68V170a.68.68,0,0,0,.68.68h1.23a.68.68,0,0,0,.68-.68v-.17a.67.67,0,0,1,.68-.67H180a.67.67,0,0,1,.67.67v9.61a.68.68,0,0,1-.67.68h-.23a.67.67,0,0,0-.67.67v1.24a.68.68,0,0,0,.67.68h4.4a.68.68,0,0,0,.67-.68v-1.24a.67.67,0,0,0-.67-.67h-.23a.68.68,0,0,1-.67-.68v-9.61a.67.67,0,0,1,.67-.67h2.24a.67.67,0,0,1,.68.67V170a.68.68,0,0,0,.68.68h1.23a.68.68,0,0,0,.68-.68v-2.76a.68.68,0,0,0-.68-.68Z" transform="translate(-100.66 -143.36)"/><path class="cls-2" d="M175.81,177.18l-2.3.38a1,1,0,0,1-1-1v-.39a1,1,0,0,1,1-1l2.3-.39a1,1,0,0,1,1,1v.39A1,1,0,0,1,175.81,177.18Z" transform="translate(-100.66 -143.36)"/><path class="cls-2" d="M151.54,158.1a.27.27,0,0,0,.26-.27v-.46a.27.27,0,0,0-.26-.27H146.1a.27.27,0,0,0-.26.27v.46a.27.27,0,0,0,.26.27h.41v4.29h-.35a.27.27,0,0,0-.26.27V163a.27.27,0,0,0,.26.27h1.77a.26.26,0,0,0,.26-.27v-.38a.26.26,0,0,0-.26-.27h-.34V158.1h2.46v4.29h-.34a.26.26,0,0,0-.26.27V163a.26.26,0,0,0,.26.27h1.77a.27.27,0,0,0,.26-.27v-.38a.27.27,0,0,0-.26-.27h-.35V158.1Z" transform="translate(-100.66 -143.36)"/><path class="cls-2" d="M161.86,158.45a.25.25,0,0,0,.24-.25v-.43a.25.25,0,0,0-.24-.25h-1.72a.25.25,0,0,0-.25.25v.43a.25.25,0,0,0,.25.25h.33v4h-2.23v-4h.33a.25.25,0,0,0,.24-.25v-.43a.25.25,0,0,0-.24-.25h-1.72a.25.25,0,0,0-.25.25v.43a.25.25,0,0,0,.25.25h.39v4h-.39a.25.25,0,0,0-.25.25v.43a.25.25,0,0,0,.25.25h4.25V164a.25.25,0,0,0,.24.25h.52a.25.25,0,0,0,.24-.25v-1.32a.25.25,0,0,0-.24-.25h-.39v-4Z" transform="translate(-100.66 -143.36)"/><path class="cls-2" d="M171.43,162.34H171l-1.66-4.88a.26.26,0,0,0-.24-.17h-1.28a.26.26,0,0,0-.25.26V158a.26.26,0,0,0,.25.26h0l-1.39,4.08h-.46a.26.26,0,0,0-.26.26v.45a.26.26,0,0,0,.26.26H167a.26.26,0,0,0,.24-.17l.26-.79.21-.63h1.92l.49,1.42a.25.25,0,0,0,.23.17h1.07a.26.26,0,0,0,.26-.26v-.45A.26.26,0,0,0,171.43,162.34ZM168,160.75l.65-1.94.64,1.94Z" transform="translate(-100.66 -143.36)"/><path class="cls-2" d="M165.94,158.19a.25.25,0,0,0,.25-.26v-.34a.25.25,0,0,0-.25-.26h-1.37a.26.26,0,0,0-.26.26v.34a.26.26,0,0,0,.26.26h.2v3h-1.66v-3h.21a.26.26,0,0,0,.25-.26v-.34a.26.26,0,0,0-.25-.26h-1.38a.25.25,0,0,0-.25.26v.34a.25.25,0,0,0,.25.26h.26v3h-.26a.26.26,0,0,0-.25.26v.35a.26.26,0,0,0,.25.26h3.33v.45a.26.26,0,0,0,.25.26h.42a.26.26,0,0,0,.25-.26v-1.06a.26.26,0,0,0-.25-.26h-.25v-3Z" transform="translate(-100.66 -143.36)"/><path class="cls-2" d="M156.38,159.37a.26.26,0,0,0,.26-.26v-.35a.26.26,0,0,0-.26-.26h-1a.23.23,0,0,0-.2.11l-2.1,3v-2.27h.26a.26.26,0,0,0,.25-.26v-.35a.26.26,0,0,0-.25-.26h-1.44a.26.26,0,0,0-.25.26v.35a.26.26,0,0,0,.25.26h.26v3.07h-.26a.26.26,0,0,0-.25.26v.35a.26.26,0,0,0,.25.26h1a.23.23,0,0,0,.2-.11l1.28-1.84.82-1.19v2.27H155a.26.26,0,0,0-.26.26v.35a.26.26,0,0,0,.26.26h1.38a.26.26,0,0,0,.26-.26v-.35a.26.26,0,0,0-.26-.26h-.25v-3.07Z" transform="translate(-100.66 -143.36)"/></svg>